<svg width="5000" height="5000" viewBox="0 0 5000 5000" fill="none" xmlns="http://www.w3.org/2000/svg"  version="1.1">
<rect x="100" y="100" width="10" height="10" style="fill:yellow;stroke:red;stroke-width:.30;fill-opacity:0.76;stroke-opacity:0.90"/>
<rect x="110" y="110" width="10" height="10" style="fill:yellow;stroke:red;stroke-width:.30;fill-opacity:0.76;stroke-opacity:0.90"/>
<rect x="120" y="110" width="10" height="10" style="fill:yellow;stroke:red;stroke-width:.30;fill-opacity:0.76;stroke-opacity:0.90"/>
<rect x="130" y="120" width="10" height="10" style="fill:yellow;stroke:red;stroke-width:.30;fill-opacity:0.76;stroke-opacity:0.90"/>
<rect x="140" y="130" width="10" height="10" style="fill:yellow;stroke:red;stroke-width:.30;fill-opacity:0.76;stroke-opacity:0.90"/>
<rect x="150" y="130" width="10" height="10" style="fill:yellow;stroke:red;stroke-width:.30;fill-opacity:0.76;stroke-opacity:0.90"/>
<rect x="160" y="140" width="10" height="10" style="fill:yellow;stroke:red;stroke-width:.30;fill-opacity:0.76;stroke-opacity:0.90"/>
<rect x="170" y="150" width="10" height="10" style="fill:yellow;stroke:red;stroke-width:.30;fill-opacity:0.76;stroke-opacity:0.90"/>
<rect x="180" y="150" width="10" height="10" style="fill:yellow;stroke:red;stroke-width:.30;fill-opacity:0.76;stroke-opacity:0.90"/>
<rect x="190" y="160" width="10" height="10" style="fill:yellow;stroke:red;stroke-width:.30;fill-opacity:0.76;stroke-opacity:0.90"/>
<rect x="200" y="170" width="10" height="10" style="fill:yellow;stroke:red;stroke-width:.30;fill-opacity:0.76;stroke-opacity:0.90"/>
<rect x="210" y="170" width="10" height="10" style="fill:yellow;stroke:red;stroke-width:.30;fill-opacity:0.76;stroke-opacity:0.90"/>
<rect x="220" y="180" width="10" height="10" style="fill:yellow;stroke:red;stroke-width:.30;fill-opacity:0.76;stroke-opacity:0.90"/>
<rect x="230" y="190" width="10" height="10" style="fill:yellow;stroke:red;stroke-width:.30;fill-opacity:0.76;stroke-opacity:0.90"/>
<rect x="240" y="190" width="10" height="10" style="fill:yellow;stroke:red;stroke-width:.30;fill-opacity:0.76;stroke-opacity:0.90"/>
<rect x="250" y="200" width="10" height="10" style="fill:yellow;stroke:red;stroke-width:.30;fill-opacity:0.76;stroke-opacity:0.90"/>
<rect x="260" y="210" width="10" height="10" style="fill:yellow;stroke:red;stroke-width:.30;fill-opacity:0.76;stroke-opacity:0.90"/>
<rect x="270" y="210" width="10" height="10" style="fill:yellow;stroke:red;stroke-width:.30;fill-opacity:0.76;stroke-opacity:0.90"/>
<rect x="280" y="220" width="10" height="10" style="fill:yellow;stroke:red;stroke-width:.30;fill-opacity:0.76;stroke-opacity:0.90"/>
<rect x="290" y="230" width="10" height="10" style="fill:yellow;stroke:red;stroke-width:.30;fill-opacity:0.76;stroke-opacity:0.90"/>
<rect x="300" y="230" width="10" height="10" style="fill:yellow;stroke:red;stroke-width:.30;fill-opacity:0.76;stroke-opacity:0.90"/>
<rect x="310" y="240" width="10" height="10" style="fill:yellow;stroke:red;stroke-width:.30;fill-opacity:0.76;stroke-opacity:0.90"/>
<rect x="320" y="250" width="10" height="10" style="fill:yellow;stroke:red;stroke-width:.30;fill-opacity:0.76;stroke-opacity:0.90"/>
<rect x="330" y="250" width="10" height="10" style="fill:yellow;stroke:red;stroke-width:.30;fill-opacity:0.76;stroke-opacity:0.90"/>
<rect x="340" y="260" width="10" height="10" style="fill:yellow;stroke:red;stroke-width:.30;fill-opacity:0.76;stroke-opacity:0.90"/>
<rect x="350" y="270" width="10" height="10" style="fill:yellow;stroke:red;stroke-width:.30;fill-opacity:0.76;stroke-opacity:0.90"/>
<rect x="360" y="270" width="10" height="10" style="fill:yellow;stroke:red;stroke-width:.30;fill-opacity:0.76;stroke-opacity:0.90"/>
<rect x="370" y="280" width="10" height="10" style="fill:yellow;stroke:red;stroke-width:.30;fill-opacity:0.76;stroke-opacity:0.90"/>
<rect x="380" y="280" width="10" height="10" style="fill:yellow;stroke:red;stroke-width:.30;fill-opacity:0.76;stroke-opacity:0.90"/>
<rect x="390" y="290" width="10" height="10" style="fill:yellow;stroke:red;stroke-width:.30;fill-opacity:0.76;stroke-opacity:0.90"/>
<rect x="400" y="300" width="10" height="10" style="fill:yellow;stroke:red;stroke-width:.30;fill-opacity:0.76;stroke-opacity:0.90"/>
<rect x="410" y="300" width="10" height="10" style="fill:yellow;stroke:red;stroke-width:.30;fill-opacity:0.76;stroke-opacity:0.90"/>
<rect x="420" y="310" width="10" height="10" style="fill:yellow;stroke:red;stroke-width:.30;fill-opacity:0.76;stroke-opacity:0.90"/>
<rect x="430" y="320" width="10" height="10" style="fill:yellow;stroke:red;stroke-width:.30;fill-opacity:0.76;stroke-opacity:0.90"/>
<rect x="440" y="320" width="10" height="10" style="fill:yellow;stroke:red;stroke-width:.30;fill-opacity:0.76;stroke-opacity:0.90"/>
<rect x="450" y="330" width="10" height="10" style="fill:yellow;stroke:red;stroke-width:.30;fill-opacity:0.76;stroke-opacity:0.90"/>
<rect x="460" y="340" width="10" height="10" style="fill:yellow;stroke:red;stroke-width:.30;fill-opacity:0.76;stroke-opacity:0.90"/>
<rect x="470" y="340" width="10" height="10" style="fill:yellow;stroke:red;stroke-width:.30;fill-opacity:0.76;stroke-opacity:0.90"/>
<rect x="480" y="350" width="10" height="10" style="fill:yellow;stroke:red;stroke-width:.30;fill-opacity:0.76;stroke-opacity:0.90"/>
<rect x="490" y="360" width="10" height="10" style="fill:yellow;stroke:red;stroke-width:.30;fill-opacity:0.76;stroke-opacity:0.90"/>
<rect x="500" y="360" width="10" height="10" style="fill:yellow;stroke:red;stroke-width:.30;fill-opacity:0.76;stroke-opacity:0.90"/>
<rect x="510" y="370" width="10" height="10" style="fill:yellow;stroke:red;stroke-width:.30;fill-opacity:0.76;stroke-opacity:0.90"/>
<rect x="520" y="380" width="10" height="10" style="fill:yellow;stroke:red;stroke-width:.30;fill-opacity:0.76;stroke-opacity:0.90"/>
<rect x="530" y="380" width="10" height="10" style="fill:yellow;stroke:red;stroke-width:.30;fill-opacity:0.76;stroke-opacity:0.90"/>
<rect x="540" y="390" width="10" height="10" style="fill:yellow;stroke:red;stroke-width:.30;fill-opacity:0.76;stroke-opacity:0.90"/>
<rect x="550" y="400" width="10" height="10" style="fill:yellow;stroke:red;stroke-width:.30;fill-opacity:0.76;stroke-opacity:0.90"/>
<rect x="560" y="400" width="10" height="10" style="fill:yellow;stroke:red;stroke-width:.30;fill-opacity:0.76;stroke-opacity:0.90"/>
<rect x="570" y="410" width="10" height="10" style="fill:yellow;stroke:red;stroke-width:.30;fill-opacity:0.76;stroke-opacity:0.90"/>
<rect x="580" y="420" width="10" height="10" style="fill:yellow;stroke:red;stroke-width:.30;fill-opacity:0.76;stroke-opacity:0.90"/>
<rect x="590" y="420" width="10" height="10" style="fill:yellow;stroke:red;stroke-width:.30;fill-opacity:0.76;stroke-opacity:0.90"/>
<rect x="600" y="430" width="10" height="10" style="fill:yellow;stroke:red;stroke-width:.30;fill-opacity:0.76;stroke-opacity:0.90"/>
<rect x="610" y="440" width="10" height="10" style="fill:yellow;stroke:red;stroke-width:.30;fill-opacity:0.76;stroke-opacity:0.90"/>
<rect x="620" y="440" width="10" height="10" style="fill:yellow;stroke:red;stroke-width:.30;fill-opacity:0.76;stroke-opacity:0.90"/>
<rect x="630" y="450" width="10" height="10" style="fill:yellow;stroke:red;stroke-width:.30;fill-opacity:0.76;stroke-opacity:0.90"/>

 <circle cx="105" cy="105" r="2" stroke="red" stroke-width="2" fill="blue" />

 <circle cx="635" cy="455" r="2" stroke="red" stroke-width="2" fill="blue" />

<line x1="105" y1="105" x2="635" y2="455" style="stroke:rgb(0,0,155);stroke-width:1" />

 </svg>
