<svg width="1400" height="1000" viewBox="0 0 1400 1000" fill="none" xmlns="http://www.w3.org/2000/svg"  version="1.1">
<rect x="400" y="100" width="1200" height="200" style="fill:RGB(253,153,51);stroke:black;stroke-width:.30;fill-opacity:0.76;stroke-opacity:0.90"/>
<rect x="400" y="300" width="1200" height="200" style="fill:RGB(253,255,255);stroke:black;stroke-width:.30;fill-opacity:0.76;stroke-opacity:0.90"/>
<rect x="400" y="500" width="1200" height="200" style="fill:RGB(18,136,7);stroke:black;stroke-width:.30;fill-opacity:0.76;stroke-opacity:0.90"/>
<rect x="360" y="60" width="20" height="690" style="fill:RGB(211,211,211);stroke:black;stroke-width:.30;fill-opacity:0.76;stroke-opacity:0.90"/>
<rect x="320" y="750" width="100" height="50" style="fill:RGB(211,211,211);stroke:black;stroke-width:.30;fill-opacity:0.76;stroke-opacity:0.90"/>
<line style="stroke:black;stroke-width:2" x1="380" y1="60" x2="400" y2="100"></line>
<line style="stroke:black;stroke-width:2" x1="380" y1="750" x2="400" y2="700"></line>
<circle style="stroke:RGB(0,0,136);stroke-width:2" r="80" cx="900" cy="400"></circle>
<line style="stroke:RGB(0,0,136);stroke-width:2" x1="900" y1="400" x2="980" y2="400"></line>
<line style="stroke:RGB(0,0,136);stroke-width:2" x1="900" y1="400" x2="977" y2="380"></line>
<line style="stroke:RGB(0,0,136);stroke-width:2" x1="900" y1="400" x2="969" y2="361"></line>
<line style="stroke:RGB(0,0,136);stroke-width:2" x1="900" y1="400" x2="956" y2="344"></line>
<line style="stroke:RGB(0,0,136);stroke-width:2" x1="900" y1="400" x2="940" y2="331"></line>
<line style="stroke:RGB(0,0,136);stroke-width:2" x1="900" y1="400" x2="920" y2="323"></line>
<line style="stroke:RGB(0,0,136);stroke-width:2" x1="900" y1="400" x2="900" y2="321"></line>
<line style="stroke:RGB(0,0,136);stroke-width:2" x1="900" y1="400" x2="880" y2="323"></line>
<line style="stroke:RGB(0,0,136);stroke-width:2" x1="900" y1="400" x2="861" y2="331"></line>
<line style="stroke:RGB(0,0,136);stroke-width:2" x1="900" y1="400" x2="844" y2="344"></line>
<line style="stroke:RGB(0,0,136);stroke-width:2" x1="900" y1="400" x2="831" y2="360"></line>
<line style="stroke:RGB(0,0,136);stroke-width:2" x1="900" y1="400" x2="823" y2="380"></line>
<line style="stroke:RGB(0,0,136);stroke-width:2" x1="900" y1="400" x2="821" y2="400"></line>
<line style="stroke:RGB(0,0,136);stroke-width:2" x1="900" y1="400" x2="823" y2="420"></line>
<line style="stroke:RGB(0,0,136);stroke-width:2" x1="900" y1="400" x2="831" y2="439"></line>
<line style="stroke:RGB(0,0,136);stroke-width:2" x1="900" y1="400" x2="844" y2="456"></line>
<line style="stroke:RGB(0,0,136);stroke-width:2" x1="900" y1="400" x2="860" y2="469"></line>
<line style="stroke:RGB(0,0,136);stroke-width:2" x1="900" y1="400" x2="880" y2="477"></line>
<line style="stroke:RGB(0,0,136);stroke-width:2" x1="900" y1="400" x2="900" y2="479"></line>
<line style="stroke:RGB(0,0,136);stroke-width:2" x1="900" y1="400" x2="920" y2="477"></line>
<line style="stroke:RGB(0,0,136);stroke-width:2" x1="900" y1="400" x2="939" y2="469"></line>
<line style="stroke:RGB(0,0,136);stroke-width:2" x1="900" y1="400" x2="956" y2="456"></line>
<line style="stroke:RGB(0,0,136);stroke-width:2" x1="900" y1="400" x2="969" y2="440"></line>
<line style="stroke:RGB(0,0,136);stroke-width:2" x1="900" y1="400" x2="977" y2="420"></line>
<line style="stroke:RGB(0,0,136);stroke-width:2" x1="900" y1="400" x2="979" y2="400"></line>
 </svg>
